<svg
	aria-label="Plantr by Mingie favicon"
	role="img"
	viewBox="0 0 128 128"
	xmlns="http://www.w3.org/2000/svg"
>
	<defs>
		<linearGradient id="bg" x1="0%" x2="100%" y1="0%" y2="100%">
			<stop offset="0%" stop-color="#fff8ef" />
			<stop offset="100%" stop-color="#f5e7d2" />
		</linearGradient>
		<linearGradient id="pot" x1="0%" x2="100%" y1="0%" y2="100%">
			<stop offset="0%" stop-color="#cf8a47" />
			<stop offset="100%" stop-color="#9f5c2c" />
		</linearGradient>
		<filter height="140%" id="shadow" width="140%" x="-20%" y="-20%">
			<feDropShadow
				dx="0"
				dy="3"
				flood-color="#000000"
				flood-opacity="0.16"
				stdDeviation="3"
			/>
		</filter>
		<clipPath id="leafShape">
			<path
				d="M64 15C46 18 34 34 34 57c0 15 6 29 16 37 4 3 9 6 14 9 5-3 10-6 14-9 10-8 16-22 16-37 0-23-12-39-30-42Z"
			/>
		</clipPath>
	</defs>

	<rect fill="url(#bg)" height="128" rx="28" width="128" />

	<g filter="url(#shadow)">
		<path
			d="M64 15C46 18 34 34 34 57c0 15 6 29 16 37 4 3 9 6 14 9 5-3 10-6 14-9 10-8 16-22 16-37 0-23-12-39-30-42Z"
			fill="#204926"
			stroke="#6f8766"
			stroke-width="2.5"
		/>
		<g clip-path="url(#leafShape)">
			<rect fill="#f2c5cf" height="104" width="36" x="24" y="8" />
			<rect fill="#2f6b34" height="104" width="44" x="60" y="8" />
			<path
				d="M53 23c7 6 10 10 12 17-8 3-14 7-20 14 1-12 3-22 8-31Z"
				fill="#fff4ea"
				fill-opacity="0.92"
			/>
			<path
				d="M73 24c7 4 12 10 15 16-6 1-11 3-17 8 1-8 1-16 2-24Z"
				fill="#d7e6cd"
				fill-opacity="0.9"
			/>
			<circle cx="50" cy="51" fill="#f8d9df" r="5" />
			<circle cx="76" cy="58" fill="#bcd4b4" r="5" />
			<circle cx="67" cy="42" fill="#efe4bf" r="3.8" />
			<circle cx="58" cy="70" fill="#f6ddd8" r="3.2" />
			<circle cx="80" cy="76" fill="#cfdfc6" r="3.6" />
		</g>
		<path
			d="M64 27v63"
			stroke="#f4efe4"
			stroke-linecap="round"
			stroke-opacity="0.88"
			stroke-width="2.5"
		/>
		<path
			d="M64 41c-7 6-14 10-23 13"
			stroke="#e9e2d7"
			stroke-linecap="round"
			stroke-opacity="0.5"
			stroke-width="1.6"
		/>
		<path
			d="M64 49c8 5 15 8 22 10"
			stroke="#dce8d7"
			stroke-linecap="round"
			stroke-opacity="0.5"
			stroke-width="1.6"
		/>

		<path
			d="M61 91c0 6-2 12-6 18"
			stroke="#7a9a68"
			stroke-linecap="round"
			stroke-width="3"
		/>
		<path
			d="M67 91c0 6 2 12 6 18"
			stroke="#7a9a68"
			stroke-linecap="round"
			stroke-width="3"
		/>

		<g transform="translate(39 94)">
			<ellipse
				cx="25"
				cy="18"
				fill="#8f4f29"
				fill-opacity="0.18"
				rx="21"
				ry="7"
			/>
			<path
				d="M4 4h42l-5 24H9Z"
				fill="url(#pot)"
				stroke="#9f5c2c"
				stroke-width="2"
			/>
			<ellipse
				cx="25"
				cy="4"
				fill="#d79a5f"
				rx="21"
				ry="6.5"
				stroke="#9f5c2c"
				stroke-width="2"
			/>
			<ellipse cx="25" cy="4" fill="#6f4d34" rx="15" ry="3.8" />
		</g>
	</g>
</svg>
